<svg xmlns="http://www.w3.org/2000/svg" viewBox="0 0 86.61 99.96"><path d="M79.24 70.86L36.06 95.78l7.23 4.22 43.18-25zM86.61 58L43.43 33.12v8.34l43.18 24.93zm0-33.06v8.35L65 20.83l-7.21-4.16-14.45-8.32V0l14.41 8.32L65 12.48l14.31 8.26 7.3 4.26zm0 16.53v8.35L43.43 24.93v-8.35L65 29l13 7.53zM7.23 70.65V20.8L0 25v49.83l7.23-4.18zm28.63-16.53l-7.23 4.18v-50l7.23-4.17v50zm-14.31 8.27l-7.24 4.17V16.71l7.24-4.18v49.86zm29.06-8.07l7.23 4.18L36.19 71 29 75.16l-14.4 8.32-7.26-4.17L21.75 71 29 66.82l14.31-8.26 7.34-4.24zm14.31 8.27l7.24 4.18L29 91.69l-7.23-4.17 21.5-12.43 13-7.53 8.61-5z" fill="#333"/></svg>