<svg xmlns="http://www.w3.org/2000/svg" viewBox="0 0 31.01 50.07"><title>b7</title><g data-name="&#x56FE;&#x5C42; 2"><g data-name="Layer 1" fill="#1a1a1a"><path d="M6.69 15.13A14.23 14.23 0 0 1 8 14.44V4a3.74 3.74 0 0 0-1.17-2.8A3.82 3.82 0 0 0 4 0a3.86 3.86 0 0 0-2.83 1.17A3.74 3.74 0 0 0 0 4v18.35a18.37 18.37 0 0 1 6.69-7.22zM26.51 18.72a15 15 0 0 0-10.93-4.5h-.11c-.44 0-.88 0-1.32.06l-1.82.38C7 15.77 3.45 19 1 23.76a13.82 13.82 0 0 0-1 5v5.84a14.9 14.9 0 0 0 4.54 10.94 14.9 14.9 0 0 0 10.93 4.54h.11a14.9 14.9 0 0 0 10.93-4.54A15 15 0 0 0 31 34.61v-5a15 15 0 0 0-4.49-10.89zM23 34.61a7.49 7.49 0 0 1-7.45 7.49h-.11a7.21 7.21 0 0 1-5.29-2.19A7.21 7.21 0 0 1 8 34.61v-5a7.17 7.17 0 0 1 2.19-5.26 7.22 7.22 0 0 1 5.29-2.19h.11a7.17 7.17 0 0 1 5.26 2.19 7.17 7.17 0 0 1 2.15 5.3z"/></g></g></svg>